HIERARCHY
ROOT Hips
{
    OFFSET 0.000000 0.000000 0.000000
    CHANNELS 6 Xposition Yposition Zposition Zrotation Xrotation Yrotation
    JOINT Spine
    {
        OFFSET -0.000000 7.246840 0.000000
        CHANNELS 3 Zrotation Xrotation Yrotation
        JOINT Spine1
        {
            OFFSET -0.000000 20.289354 0.000000
            CHANNELS 3 Zrotation Xrotation Yrotation
            JOINT Neck
            {
                OFFSET -0.000000 20.206032 1.836912
                CHANNELS 3 Zrotation Xrotation Yrotation
                JOINT Head
                {
                    OFFSET -0.000000 12.372654 -1.767522
                    CHANNELS 3 Zrotation Xrotation Yrotation
                    End Site
                    {
                        OFFSET -0.000000 22.094025 0.000000
                    }
                }
            }
            JOINT LeftShoulder
            {
                OFFSET 3.465871 17.201674 -0.568930
                CHANNELS 3 Zrotation Xrotation Yrotation
                JOINT LeftArm
                {
                    OFFSET 14.070313 0.000000 0.000000
                    CHANNELS 3 Zrotation Xrotation Yrotation
                    JOINT LeftForeArm
                    {
                        OFFSET 26.549477 0.000000 0.000000
                        CHANNELS 3 Zrotation Xrotation Yrotation
                        JOINT LeftHand
                        {
                            OFFSET 18.880413 0.000000 0.000000
                            CHANNELS 3 Zrotation Xrotation Yrotation
                            End Site
                            {
                                OFFSET 13.256415 0.000000 0.000000
                            }
                        }
                    }
                }
            }
            JOINT RightShoulder
            {
                OFFSET -3.526370 17.201674 -0.568930
                CHANNELS 3 Zrotation Xrotation Yrotation
                JOINT RightArm
                {
                    OFFSET -14.070313 0.000000 0.000000
                    CHANNELS 3 Zrotation Xrotation Yrotation
                    JOINT RightForeArm
                    {
                        OFFSET -26.549477 0.000000 0.000000
                        CHANNELS 3 Zrotation Xrotation Yrotation
                        JOINT RightHand
                        {
                            OFFSET -18.880413 0.000000 0.000000
                            CHANNELS 3 Zrotation Xrotation Yrotation
                            End Site
                            {
                                OFFSET -13.256415 0.000000 0.000000
                            }
                        }
                    }
                }
            }
        }
    }
    JOINT LeftUpLeg
    {
        OFFSET 8.837609 0.000000 0.000000
        CHANNELS 3 Zrotation Xrotation Yrotation
        JOINT LeftLeg
        {
            OFFSET -0.000000 -41.345005 0.000000
            CHANNELS 3 Zrotation Xrotation Yrotation
            JOINT LeftFoot
            {
                OFFSET -0.000000 -35.500874 0.000000
                CHANNELS 3 Zrotation Xrotation Yrotation
                JOINT LeftToeBase
                {
                    OFFSET -0.000000 -5.744446 13.256415
                    CHANNELS 3 Zrotation Xrotation Yrotation
                    End Site
                    {
                        OFFSET -0.000000 0.000000 3.535044
                    }
                }
            }
        }
    }
    JOINT RightUpLeg
    {
        OFFSET -8.837609 0.000000 0.000000
        CHANNELS 3 Zrotation Xrotation Yrotation
        JOINT RightLeg
        {
            OFFSET -0.000000 -41.345005 0.000000
            CHANNELS 3 Zrotation Xrotation Yrotation
            JOINT RightFoot
            {
                OFFSET -0.000000 -35.500874 0.000000
                CHANNELS 3 Zrotation Xrotation Yrotation
                JOINT RightToeBase
                {
                    OFFSET -0.000000 -5.744446 13.256415
                    CHANNELS 3 Zrotation Xrotation Yrotation
                    End Site
                    {
                        OFFSET -0.000000 0.000000 3.535044
                    }
                }
            }
        }
    }
}
MOTION
Frames:    5
Frame Time:    0.010000
6.877961    82.821854    79.998589    2.985489    0.857554    -23.095032    12.628032    -15.905786    -8.714540    -20.156292    4.514326    -9.683039    -14.396593    17.820568    1.610441    14.560879    4.265914    3.015204    11.979017    -9.997760    22.985359    24.574566    56.250168    -106.427551    17.356085    -8.177095    -99.912621    1.164159    12.406090    -32.241226    -2.191726    -12.377610    42.955082    31.802853    52.095337    58.756027    4.130486    -17.091087    106.876846    43.662334    -13.262495    23.433691    -5.497556    8.838777    5.609567    -0.536060    -10.277026    0.185313    5.405478    0.343819    -4.057784    -2.079919    0.726237    2.898903    -7.229299    2.019451    10.561842    4.207332    0.197786    6.911777    3.065758    -3.676172    1.664449    -1.285518    0.311498    2.297431    
6.865744    82.824669    80.011559    3.013800    0.924686    -22.584984    12.784980    -15.867655    -8.550134    -20.281586    4.312076    -9.567612    -14.723033    17.590134    1.705468    14.885302    4.696071    3.120867    11.979148    -9.989678    23.203798    24.607042    56.291595    -106.416435    17.356085    -8.177095    -99.912621    1.164159    12.406090    -32.241226    -2.143374    -12.283752    43.078304    32.497879    51.940403    58.268715    4.271104    -16.694544    106.782135    42.962635    -13.296412    23.192299    -5.467078    8.791305    5.442080    -0.511858    -10.343591    0.020034    5.374423    0.407671    -4.223052    -2.113122    0.704368    2.945550    -7.238435    2.082337    10.289541    4.242314    0.180769    6.905234    3.068484    -3.735021    1.481266    -1.256720    0.288841    2.246518    
6.851734    82.824364    80.025688    3.050664    0.984426    -22.065748    12.851086    -15.884748    -8.368584    -20.372986    4.252849    -9.404457    -14.641487    17.383680    1.761006    14.784690    4.971495    3.162663    12.132903    -10.073260    23.321501    24.582577    56.418468    -106.511284    17.356085    -8.177095    -99.912621    1.164159    12.406090    -32.241226    -2.013565    -12.418561    43.114864    33.416981    51.924660    57.562096    4.367836    -16.324707    106.717285    42.353012    -13.287792    22.926533    -5.445149    8.748768    5.291828    -0.491259    -10.407535    -0.139162    5.341854    0.451378    -4.392083    -2.093800    0.719723    2.918358    -7.259228    2.162490    10.154560    4.311490    0.115823    6.654990    3.023713    -3.761124    1.397106    -1.258601    0.254455    2.250710    
6.840865    82.823242    80.038872    3.101470    1.034804    -21.535522    12.890620    -15.853364    -8.200765    -20.389898    4.115417    -9.262703    -14.712237    17.162462    1.787371    14.809537    5.294739    3.181200    12.123056    -10.105375    23.432394    24.693911    56.397606    -106.643105    17.356085    -8.177095    -99.912621    1.164159    12.406090    -32.241226    -2.023738    -12.515382    43.151997    34.136570    51.944271    57.033649    3.529880    -16.732630    106.289055    42.721039    -12.385157    23.164074    -5.448193    8.693426    5.205016    -0.459233    -10.441829    -0.358999    5.277618    0.500313    -4.583747    -2.119934    0.707632    2.954987    -7.300590    2.238506    10.010739    4.372396    0.084276    6.508085    2.982479    -3.820753    1.213463    -1.244303    0.195112    2.226563    
6.831616    82.822197    80.054222    3.146222    1.078557    -20.974674    12.928843    -15.819762    -8.055915    -20.417122    3.967547    -9.145001    -14.801965    16.998167    1.839410    14.864201    5.546603    3.230516    12.119276    -10.131125    23.520258    24.668560    56.392303    -106.624710    17.356085    -8.177095    -99.912621    1.164159    12.406090    -32.241226    -2.105657    -12.449207    43.178173    34.590141    51.837193    56.750748    3.695936    -16.444164    106.341003    41.905991    -12.691792    22.678074    -5.429418    8.652736    5.091163    -0.467706    -10.491123    -0.590709    5.171391    1.048548    -4.192207    -1.735677    0.527775    2.422029    -7.335993    2.291441    9.618075    4.428015    0.168041    6.686110    2.930671    -3.947000    0.941840    -1.223547    0.129478    2.190974    
